<?xml version="1.0" standalone="no"?><!DOCTYPE svg PUBLIC "-//W3C//DTD SVG 1.1//EN" "http://www.w3.org/Graphics/SVG/1.1/DTD/svg11.dtd"><svg t="1537974751581" class="icon" style="" viewBox="0 0 1024 1024" version="1.1" xmlns="http://www.w3.org/2000/svg" p-id="1424" id="mx_n_1537974751587" xmlns:xlink="http://www.w3.org/1999/xlink" width="128" height="128"><defs><style type="text/css"></style></defs><path d="M335.931598 952.80462a17.434036 17.434036 0 0 1-6.681767 14.438761 27.725493 27.725493 0 0 1-17.818045 5.299333 55.911798 55.911798 0 0 1-20.429311-2.918473v-5.068927a51.764494 51.764494 0 0 0 20.045301 3.302482 22.426161 22.426161 0 0 0 14.208355-4.147303 12.979524 12.979524 0 0 0 5.222531-10.752269 12.441911 12.441911 0 0 0-1.766444-6.835371 15.897997 15.897997 0 0 0-5.683342-4.915323 70.580965 70.580965 0 0 0-11.520288-4.838521 39.552989 39.552989 0 0 1-15.360384-8.294607 16.512413 16.512413 0 0 1-4.300908-11.827496 16.282007 16.282007 0 0 1 6.37456-13.286732 25.421436 25.421436 0 0 1 16.43561-5.145729 48.154804 48.154804 0 0 1 19.277282 3.840096l-1.843246 4.37771a44.929123 44.929123 0 0 0-17.280432-3.763294 20.275707 20.275707 0 0 0-12.82592 3.763294 12.211505 12.211505 0 0 0-4.761719 10.137853 13.286732 13.286732 0 0 0 1.459236 6.604965 13.517138 13.517138 0 0 0 4.838521 4.684917 65.281632 65.281632 0 0 0 11.443486 4.915323 62.363159 62.363159 0 0 1 12.825921 5.683342 18.355659 18.355659 0 0 1 6.220955 6.297758 17.126828 17.126828 0 0 1 1.920048 8.448211zM387.772894 971.544289v-35.098478a17.126828 17.126828 0 0 0-3.456086-11.904297 13.901148 13.901148 0 0 0-10.675467-3.686493 18.432461 18.432461 0 0 0-14.208355 4.915323 23.040576 23.040576 0 0 0-4.531313 15.897998v29.875947h-4.915323v-53.761344h4.147303l0.921623 7.680192a21.19733 21.19733 0 0 1 19.046877-8.448212q18.432461 0 18.43246 19.738094v35.405685zM454.897772 944.663617a30.720768 30.720768 0 0 1-6.451361 20.659716 22.195755 22.195755 0 0 1-17.741243 7.680192 23.040576 23.040576 0 0 1-12.518713-3.456086 21.965349 21.965349 0 0 1-8.294608-9.830646A35.943299 35.943299 0 0 1 407.050176 944.663617a30.720768 30.720768 0 0 1 6.451362-20.659717 22.118953 22.118953 0 0 1 17.587639-7.680192 21.734943 21.734943 0 0 1 17.510838 7.680192 30.720768 30.720768 0 0 1 6.297757 20.659717z m-42.701867 0a27.571889 27.571889 0 0 0 4.915323 17.357234 18.509263 18.509263 0 0 0 27.725493 0 27.495087 27.495087 0 0 0 4.915323-17.357234 27.111078 27.111078 0 0 0-4.915323-17.357234 16.81962 16.81962 0 0 0-13.901148-6.144154 16.589215 16.589215 0 0 0-13.824345 6.144154 27.418285 27.418285 0 0 0-4.915323 17.357234zM513.113628 971.544289l-11.827496-36.173705q-1.152029-3.686492-2.918473-10.82907a18.202055 18.202055 0 0 0-1.382434 3.686492l-2.227256 7.21938-12.057901 36.096903h-4.915323l-15.360384-53.761344h5.299332l8.448211 31.027975q3.072077 11.673892 3.9937 17.126828c2.227256-7.680192 3.686492-12.902723 4.608115-15.360384l11.136279-33.024825h4.454511l10.598665 32.871222q3.60969 11.673892 4.37771 15.360384c0.537613-2.150454 1.920048-7.680192 4.300907-17.280432l8.294607-30.720768h4.992125l-14.669167 53.761344zM611.112878 971.544289v-35.482487a17.664442 17.664442 0 0 0-3.072077-11.520288 11.673892 11.673892 0 0 0-9.446636-3.609691 15.360384 15.360384 0 0 0-12.288307 4.608115 21.58134 21.58134 0 0 0-3.9937 14.36196v31.719193h-4.992125v-36.941724q0-13.670742-12.518713-13.670742a14.745969 14.745969 0 0 0-12.365109 4.915323 25.805445 25.805445 0 0 0-3.916898 15.821196v29.875947h-4.915323v-53.761345h4.070502l1.075227 7.680192a18.355659 18.355659 0 0 1 6.681767-6.220955 19.046876 19.046876 0 0 1 9.139428-2.227256 15.360384 15.360384 0 0 1 16.435611 9.60024 19.58449 19.58449 0 0 1 17.434036-9.60024 17.357234 17.357234 0 0 1 13.286732 4.761719 21.504538 21.504538 0 0 1 4.454512 15.360384v35.405685zM666.41026 971.544289l-1.22883-8.525014h-0.38401a25.651841 25.651841 0 0 1-8.371409 7.680192 22.349359 22.349359 0 0 1-10.214656 2.150454 17.58764 17.58764 0 0 1-12.365109-4.070502 14.592365 14.592365 0 0 1-4.454511-11.289882 13.901148 13.901148 0 0 1 6.604965-12.288307 35.866497 35.866497 0 0 1 19.123678-4.608115h10.291457V936.983425a18.355659 18.355659 0 0 0-3.148878-11.673892 12.134703 12.134703 0 0 0-10.137854-3.916898 33.716043 33.716043 0 0 0-15.360384 4.147303l-1.843246-4.300907a41.242631 41.242631 0 0 1 17.58764-4.147304 17.58764 17.58764 0 0 1 13.286732 4.608115 20.352509 20.352509 0 0 1 4.377709 14.438761v35.943299z m-19.968499-3.840096a17.20363 17.20363 0 0 0 18.662867-18.739669v-5.299332l-9.446637 0.384009a35.712893 35.712893 0 0 0-16.282007 3.532889 10.214655 10.214655 0 0 0-4.838521 9.369834 10.061052 10.061052 0 0 0 3.148879 7.680192 12.595515 12.595515 0 0 0 8.755419 3.072077zM725.240531 971.544289v-35.098478a17.20363 17.20363 0 0 0-3.456086-11.904297 13.901148 13.901148 0 0 0-10.675467-3.686493 18.432461 18.432461 0 0 0-14.208355 4.915323 23.040576 23.040576 0 0 0-4.531314 15.897998v29.875947h-4.915323v-53.761344h4.147304l0.921623 7.680192a21.19733 21.19733 0 0 1 19.046876-8.448212q18.432461 0 18.432461 19.738094v35.405685zM360.201005 358.741769a131.868897 131.868897 0 0 1 44.852321-101.378535 161.284032 161.284032 0 0 1 107.138679-37.786545 161.284032 161.284032 0 0 1 107.138678 37.786545 131.792095 131.792095 0 0 1 44.852322 101.378535 151.991 151.991 0 0 1-303.982 0z m14.285157 0a137.705843 137.705843 0 0 0 275.411685 0c0-75.649891-60.673517-124.495912-137.705842-124.803121s-137.552239 49.076427-137.705843 124.803121z" fill="#45b358" p-id="1425"></path><path d="M498.367659 368.649216a13.824346 13.824346 0 1 1 13.824346 13.824346 13.824346 13.824346 0 0 1-13.824346-13.824346zM445.451136 319.649591a17.818045 17.818045 0 1 1 17.818046 17.818046A17.818045 17.818045 0 0 1 445.451136 319.649591z m14.285157 0a3.532888 3.532888 0 1 0 3.532889-3.532888 3.60969 3.60969 0 0 0-3.225681 3.532888zM542.989575 319.649591a17.818045 17.818045 0 1 1 17.664441 17.818046 17.894847 17.894847 0 0 1-17.664441-17.818046z m17.818045 3.532889a3.532888 3.532888 0 0 0 0-7.142579 3.60969 3.60969 0 0 0-3.532888 3.532888 3.60969 3.60969 0 0 0 3.379284 3.609691zM416.957624 397.757144a7.142579 7.142579 0 0 1 13.133128-4.684917c8.525013 25.575039 41.473037 46.541964 81.794045 46.081152s73.269032-20.890122 81.794045-46.081152a7.142579 7.142579 0 0 1 13.517138 4.684917c-11.750694 33.408835-50.38206 55.9886-95.311183 56.065402s-83.253281-22.733368-94.927173-56.065402zM485.772144 578.702468a26.41986 26.41986 0 1 1 26.419861 26.41986 26.41986 26.41986 0 0 1-26.419861-26.41986z m14.285157 0a12.134703 12.134703 0 1 0 12.134704-12.134704 12.134703 12.134703 0 0 0-12.134704 12.134704z" fill="#45b358" p-id="1426"></path><path d="M503.129378 578.702468a9.062627 9.062627 0 1 1 9.062627 9.062626 9.062627 9.062627 0 0 1-9.062627-9.062626zM485.772144 653.58434a26.41986 26.41986 0 1 1 26.419861 26.41986 26.41986 26.41986 0 0 1-26.419861-26.41986z m14.285157 0a12.134703 12.134703 0 1 0 12.134704-12.134704 12.211505 12.211505 0 0 0-12.134704 12.134704z" fill="#45b358" p-id="1427"></path><path d="M503.129378 653.58434a9.062627 9.062627 0 1 1 9.062627 9.062626 9.062627 9.062627 0 0 1-9.062627-9.062626zM485.772144 728.38941a26.41986 26.41986 0 1 1 26.419861 26.41986 26.496662 26.496662 0 0 1-26.419861-26.41986z m14.285157 0a12.134703 12.134703 0 1 0 12.134704-12.134704 12.134703 12.134703 0 0 0-12.134704 12.134704z" fill="#45b358" p-id="1428"></path><path d="M503.129378 728.38941A9.062627 9.062627 0 1 1 512.192005 737.298432a9.062627 9.062627 0 0 1-9.062627-8.909022zM649.897847 538.919073a7.142579 7.142579 0 0 1 0.38401-10.061052l121.423836-111.823595a7.142579 7.142579 0 0 1 9.677042 10.521863L659.958899 539.303083a7.142579 7.142579 0 0 1-10.061052-0.38401zM355.439286 552.973824L235.935498 465.266032a7.142579 7.142579 0 1 1 8.448212-11.520288l119.503787 87.477387a7.142579 7.142579 0 0 1-8.448211 11.520288z" fill="#45b358" p-id="1429"></path><path d="M748.511513 454.513763a7.142579 7.142579 0 0 1-6.37456-7.680192l4.224106-41.857047a7.142579 7.142579 0 1 1 14.208355 1.382435l-4.147303 41.857046a7.142579 7.142579 0 0 1-7.065777 6.451362z" fill="#45b358" p-id="1430"></path><path d="M730.693467 459.275482a7.142579 7.142579 0 0 1 5.760144-8.294607l49.614041-8.755419a7.142579 7.142579 0 0 1 2.457661 14.054751l-49.61404 8.755419h-1.228831a7.142579 7.142579 0 0 1-6.988975-5.760144zM255.827196 478.39916l-13.824346-36.480912a7.142579 7.142579 0 0 1 13.363534-5.068927L268.80672 473.330233a7.142579 7.142579 0 0 1-13.363534 5.068927z" fill="#45b358" p-id="1431"></path><path d="M229.791345 483.852096a7.142579 7.142579 0 0 1 5.22253-8.678617l26.112653-6.220955a7.142579 7.142579 0 0 1 3.456087 13.901147L238.085952 489.228231h-1.689642a7.142579 7.142579 0 0 1-6.604965-5.376135zM377.404635 776.621016a163.280882 163.280882 0 0 1-56.372609-126.569565 191.236781 191.236781 0 0 1 112.591615-174.340358 7.142579 7.142579 0 0 1 5.913747 13.056326 176.644416 176.644416 0 0 0-104.220205 161.284032c0 97.308033 78.107553 158.595965 176.644416 158.979975s176.644416-61.441536 176.644416-158.979975a176.644416 176.644416 0 0 0-104.220205-161.284032 7.142579 7.142579 0 1 1 5.836946-13.056326 191.313583 191.313583 0 0 1 112.591614 174.340358 163.280882 163.280882 0 0 1-56.372609 126.569565 204.830721 204.830721 0 0 1-134.864172 46.695567 204.830721 204.830721 0 0 1-134.172954-46.695567zM418.877672 254.905573l-5.376134-9.139429a17.894847 17.894847 0 0 1-2.611266-9.293032 17.58764 17.58764 0 0 1 8.141004-15.360384 176.644416 176.644416 0 0 1 186.244656 0 17.58764 17.58764 0 0 1 8.141003 15.360384 17.971649 17.971649 0 0 1-2.457661 9.293032l-5.376134 8.909023a7.142579 7.142579 0 1 1-12.211506-7.680192l5.376135-8.909023a3.763294 3.763294 0 0 0 0.537613-1.920048 3.302483 3.302483 0 0 0-1.382434-2.841671 161.975249 161.975249 0 0 0-171.114678 0 3.302483 3.302483 0 0 0-1.459237 2.841671 3.60969 3.60969 0 0 0 0.537614 1.920048l5.376134 8.909023a7.142579 7.142579 0 1 1-12.211505 7.680192zM478.091952 121.731043a34.176854 34.176854 0 1 1 34.176855 34.176855 34.176854 34.176854 0 0 1-34.176855-34.176855z m14.285157 0a19.891697 19.891697 0 1 0 19.891698-19.891697 19.891697 19.891697 0 0 0-19.891698 19.891697z" fill="#45b358" p-id="1432"></path><path d="M573.556739 220.344709L522.253056 147.920498a7.142579 7.142579 0 1 1 11.59709-8.294607l51.610891 72.347408a7.142579 7.142579 0 0 1-1.766445 9.98425 7.142579 7.142579 0 0 1-9.984249-1.689642zM440.919823 221.957549a7.142579 7.142579 0 0 1-1.689642-9.98425l51.61089-72.347408a7.142579 7.142579 0 0 1 11.673892 8.294607l-51.61089 72.347409a7.142579 7.142579 0 0 1-9.98425 1.689642z" fill="#45b358" p-id="1433"></path></svg>